<!DOCTYPE svg PUBLIC "-//W3C//DTD SVG 1.1//EN" "http://www.w3.org/Graphics/SVG/1.1/DTD/svg11.dtd">
<!-- Uploaded to: SVG Repo, www.svgrepo.com, Transformed by: SVG Repo Mixer Tools -->
<svg height="64px" width="64px" version="1.1" id="Capa_1" xmlns="http://www.w3.org/2000/svg" xmlns:xlink="http://www.w3.org/1999/xlink" viewBox="0 0 170.057 170.057" xml:space="preserve" fill="#000000" transform="rotate(45)">
<g id="SVGRepo_bgCarrier" stroke-width="0"/>
<g id="SVGRepo_tracerCarrier" stroke-linecap="round" stroke-linejoin="round"/>
<g id="SVGRepo_iconCarrier"> <g> <path style="fill:#000000;" d="M169.185,102.329c-1.164-1.158-3.055-1.158-4.219,0l-40.27,40.27V48.204 c0-18.086-14.72-32.818-32.818-32.818H2.983C1.337,15.386,0,16.728,0,18.369c0,1.647,1.337,2.983,2.983,2.983h88.888 c14.804,0,26.851,12.053,26.851,26.851v95.703l-41.541-41.577c-1.164-1.158-3.055-1.158-4.219,0c-1.164,1.164-1.164,3.061,0,4.219 l48.093,48.123l48.123-48.123C170.348,105.39,170.348,103.499,169.185,102.329z"/> </g> </g>
</svg>